<?xml version="1.0" encoding="utf-8"?>
<!-- Generator: Adobe Illustrator 21.1.0, SVG Export Plug-In . SVG Version: 6.00 Build 0)  -->
<svg version="1.1" id="Layer_1" xmlns="http://www.w3.org/2000/svg" xmlns:xlink="http://www.w3.org/1999/xlink" x="0px" y="0px"
	 viewBox="0 0 203 223.7" style="enable-background:new 0 0 203 223.7;" xml:space="preserve">
<style type="text/css">
	.st0{fill:#060606;}
	.st1{fill:#0F1031;}
</style>
<g id="Jhz3ax.tif">
	<g>
		<g>
			<path class="st0" d="M146.1,55.6c12.2,0,23.8,0,35.9,0c6.3,55.5,12.5,110.6,18.8,166.1c-66.4,0-132.2,0-198.6,0
				c6.3-55.3,12.6-110.3,19-165.8c11.8,0,23.4,0,36,0c-1.5-18.3,2.8-34,18-45.2c8.4-6.1,17.7-9.1,28-8.7c13.7,0.6,24.9,6.4,33.6,17
				C145.5,29.6,146.9,42.1,146.1,55.6z M65.9,64.8c-1.2,7.3-1,8,2.3,12.9c2.7,4,2.2,8.7-1.3,11.7c-3.4,2.9-8.2,2.9-11.4,0
				c-3.5-3.1-4.6-8.4-1.3-11.6c4-4,2.9-8.2,2.6-12.9c-9.3,0-18.2,0-27.8,0c-5.7,49.4-11.3,98.7-17,148.4c60,0,119.4,0,179.2,0
				c-5.6-49.7-11.2-99.1-16.8-148.2c-10,0-18.9,0-27.9,0c0,4.7-1.3,8.9,2.7,12.8c3.1,3,1.9,8.7-1.4,11.6c-3.2,2.8-8,2.8-11.4-0.1
				c-3.5-3-4.3-8.1-1.1-11.6c3.8-4.1,2.7-8.3,2.3-12.9C113.4,64.8,89.8,64.8,65.9,64.8z M137.9,55.4c0.9-16.9-3.3-30.9-18.2-39.7
				C107.1,8.3,94.2,8.6,82,16.6c-13.8,9.1-17.7,22.8-16.5,38.8C89.6,55.4,113.5,55.4,137.9,55.4z"/>
			<path class="st1" d="M203,223.7H0L19.4,53.9H55c-1.2-19.9,5-34.6,18.9-44.8c8.8-6.5,18.7-9.5,29.3-9c14.1,0.6,25.9,6.6,35.1,17.7
				c9.4,11.3,10.4,24.9,9.9,35.9h35.6L203,223.7z M4.5,219.7h194.1L180.2,57.6H144l0.1-2.1c1-16-1.7-26.5-8.8-35.2
				C126.8,10.1,116,4.6,103.1,4c-9.7-0.4-18.7,2.4-26.7,8.3C63,22.1,57.5,35.9,59.2,55.7l0.2,2.2H23L4.5,219.7z M193.3,215.2H9.7
				L27.2,62.9h31.4l0.1,1.9c0,0.6,0.1,1.3,0.2,1.9c0.4,4,0.8,8.5-3.3,12.6c-1.2,1.2-1.4,2.5-1.4,3.5c0,1.9,1,3.8,2.6,5.2
				c2.5,2.2,6.1,2.2,8.7-0.1c2.7-2.3,3.1-5.9,1-9c-3.6-5.3-3.8-6.6-2.6-14.3l0.3-1.7h75.2l0.2,1.8c0.1,0.5,0.1,1.1,0.2,1.6
				c0.5,4,1,8.6-3,12.9c-1,1.1-1.5,2.5-1.5,4c0.1,1.7,1,3.4,2.4,4.7c2.6,2.3,6.3,2.3,8.7,0.1c1.5-1.3,2.5-3.5,2.5-5.5
				c0-0.9-0.2-2.3-1.2-3.2c-3.9-3.7-3.7-7.9-3.5-11.6c0-0.9,0.1-1.8,0.1-2.7l0-2h31.7L193.3,215.2z M14.2,211.2h174.7L172.5,67
				h-24.2c0,0.3,0,0.6,0,0.9c-0.2,3.5-0.3,6,2.2,8.4c1.6,1.5,2.5,3.7,2.4,6.2c-0.1,3.1-1.5,6.3-3.9,8.4c-3.9,3.5-9.9,3.4-14-0.1
				c-2.3-2-3.6-4.7-3.8-7.5c-0.1-2.6,0.7-5,2.5-6.9c2.7-2.9,2.4-5.9,2-9.6H67.6c-0.8,5.3-0.5,5.8,2.2,9.8c3.3,4.8,2.6,10.7-1.7,14.3
				c-4.2,3.5-10.1,3.5-14,0c-2.4-2.1-3.8-5.2-3.9-8.1c-0.1-2.4,0.8-4.7,2.5-6.4c2.8-2.8,2.5-5.6,2.2-9.4c0,0,0-0.1,0-0.1H30.7
				L14.2,211.2z M139.8,57.4H63.6l-0.1-1.9c-1.3-18.8,4.4-32.1,17.4-40.6c12.8-8.4,26.6-8.7,39.8-1c14.2,8.3,20.3,21.5,19.2,41.6
				L139.8,57.4z M67.4,53.4H136c0.5-17.3-5-28.8-17.3-36c-11.8-7-24.1-6.7-35.5,0.9C71.7,25.8,66.6,37,67.4,53.4z"/>
		</g>
	</g>
</g>
</svg>
