<?xml version="1.0" encoding="utf-8"?>
<!-- Generator: Adobe Illustrator 21.1.0, SVG Export Plug-In . SVG Version: 6.00 Build 0)  -->
<svg version="1.1" id="Layer_1" xmlns="http://www.w3.org/2000/svg" xmlns:xlink="http://www.w3.org/1999/xlink" x="0px" y="0px"
	 viewBox="0 0 142 156" style="enable-background:new 0 0 142 156;" xml:space="preserve">
<style type="text/css">
	.st0{fill:none;stroke:#203139;stroke-width:7;stroke-miterlimit:10;}
	.st1{fill:#203139;}
</style>
<g>
	<g>
		<path class="st0" d="M137.5,145.7c-1.3,1.8-3.3,3-5.6,3.2c-0.6,0.1-1.2,0.1-1.8,0.1H99.5c-28.4,0.1-56.6,0.1-84.8,0.1h-0.6
			c-1.5,0-4.6,0-6.8-2.5c-0.6-0.7-0.9-1.4-1.3-2c-0.1-0.2-0.2-0.4-0.3-0.6l-0.3-0.6l0.1-2.4v-0.4c0.1-0.6,0.2-1.2,0.4-1.8
			c0.3-1.5,0.6-2.8,0.9-4.2c1.5-6.6,4-12.9,7.4-18.7c3-5.2,6.7-10,11-14.2c4.4-4.3,9.4-8,14.8-11.1c2.3-1.3,4,0,4.6,0.5l1.3,1
			c1.9,1.5,3.9,3,5.9,4.4c2.8,1.9,6.2,3.3,10.4,4.4c5.2,1.3,10.4,1.6,15.6,0.8c4.5-0.7,9-2.1,13.1-4.3c3.2-1.7,6-3.7,8.3-6
			c1.6-1.5,3.3-1.8,5.2-0.7c4,2.3,7.5,4.8,10.7,7.4c4.5,3.8,8.4,8,11.7,12.6c5.4,7.7,9.1,16.1,10.9,24.9c0.1,0.6,0.2,1.2,0.3,1.8
			c0.1,0.9,0.3,1.8,0.5,2.5c0.1,0.3,0.1,0.6,0.2,0.9C138.9,142.6,138.5,144.3,137.5,145.7z"/>
	</g>
</g>
<g>
	<g>
		<path class="st1" d="M99.9,18.8C92.6,11.4,82.7,7.3,72.2,7.2c-0.1,0-0.1,0-0.2,0c-21.5,0-39,17.5-39.2,39s17.3,39.1,39,39.3h0.4
			c10.2,0,19.8-4,27.2-11.2c7.5-7.4,11.7-17.2,11.8-27.7C111.2,36.1,107.2,26.2,99.9,18.8z M95.9,70.7c-6.5,6.4-15,9.9-24,9.8
			c-19-0.2-34.2-15.5-34.1-34.2C38,27.5,53.3,12.2,71.9,12.2h0.2c9.2,0.1,17.8,3.7,24.3,10.1c6.4,6.5,9.9,15.1,9.8,24.2
			C106.1,55.7,102.5,64.3,95.9,70.7z"/>
	</g>
</g>
</svg>
